<?xml version="1.0" encoding="UTF-8"?>
<svg width="600px" height="600px" viewBox="0 0 600 600" version="1.1" xmlns="http://www.w3.org/2000/svg" xmlns:xlink="http://www.w3.org/1999/xlink">
    <title>coinbase600@2x</title>
    <g id="coinbase600" stroke="none" stroke-width="1" fill="none" fill-rule="evenodd">
        <g id="WalletConnect" transform="translate(27.950000, 133.975000)" fill="#0098FF" fill-rule="nonzero">
            <path d="M111.433091,64.8948187 C200.063271,-21.6316062 343.936729,-21.6316062 432.566909,64.8948187 L443.23695,75.3880829 C447.711484,79.688601 447.711484,86.7414508 443.23695,91.0419689 L406.752294,126.650259 C404.515027,128.886528 400.900981,128.886528 398.663714,126.650259 L384.035432,112.372539 C322.080354,51.9932642 221.919646,51.9932642 159.964568,112.372539 L144.303701,127.682383 C142.066435,129.918653 138.452388,129.918653 136.215122,127.682383 L99.730465,92.0740933 C95.2559317,87.7735751 95.2559317,80.7207254 99.730465,76.4202073 L111.433091,64.8948187 Z M508.117684,138.519689 L540.6441,170.171503 C545.118633,174.472021 545.118633,181.52487 540.6441,185.825389 L394.189181,328.774611 C389.714647,333.07513 382.486555,333.07513 378.184119,328.774611 C378.184119,328.774611 378.184119,328.774611 378.184119,328.774611 L274.237267,227.282383 C273.204682,226.250259 271.31161,226.250259 270.279026,227.282383 C270.279026,227.282383 270.279026,227.282383 270.279026,227.282383 L166.332173,328.774611 C161.85764,333.07513 154.629548,333.07513 150.327112,328.774611 C150.327112,328.774611 150.327112,328.774611 150.327112,328.774611 L3.35590003,185.825389 C-1.11863334,181.52487 -1.11863334,174.472021 3.35590003,170.171503 L35.8823157,138.519689 C40.3568491,134.219171 47.5849415,134.219171 51.8873774,138.519689 L155.83423,240.011917 C156.866814,241.044041 158.759886,241.044041 159.792471,240.011917 C159.792471,240.011917 159.792471,240.011917 159.792471,240.011917 L263.739323,138.519689 C268.213856,134.219171 275.441949,134.219171 279.744385,138.519689 C279.744385,138.519689 279.744385,138.519689 279.744385,138.519689 L383.691237,240.011917 C384.723822,241.044041 386.616893,241.044041 387.649478,240.011917 L491.59633,138.519689 C496.415059,134.219171 503.643151,134.219171 508.117684,138.519689 L508.117684,138.519689 Z" id="Shape"></path>
        </g>
        <g id="Coinbase-icon-symbol-1" transform="translate(18.000000, 18.000000)" fill-rule="nonzero">
            <path d="M282,0 L282,0 C437.760937,0 564,126.239062 564,282 L564,282 C564,437.760937 437.760937,564 282,564 L282,564 C126.239062,564 0,437.760937 0,282 L0,282 C0,126.239062 126.239062,0 282,0 Z" id="Path" fill="#0052FF"></path>
            <path d="M282.055078,381.140625 C227.307422,381.140625 182.914453,336.802734 182.914453,282 C182.914453,227.197266 227.307422,182.859375 282.055078,182.859375 C331.129688,182.859375 371.8875,218.660156 379.708594,265.476562 L479.565234,265.476562 C471.138281,163.692187 385.932422,83.71875 282,83.71875 C172.504687,83.71875 83.71875,172.504687 83.71875,282 C83.71875,391.495313 172.504687,480.28125 282,480.28125 C385.932422,480.28125 471.138281,400.307812 479.565234,298.523438 L379.653516,298.523438 C371.777344,345.339844 331.129688,381.140625 282.055078,381.140625 Z" id="Path" fill="#FFFFFF"></path>
        </g>
    </g>
</svg>