<svg xmlns="http://www.w3.org/2000/svg" width="300" height="300" viewBox="0 0 300 300"><g fill="none" transform="translate(22 33)"><path fill="#9C6CFF" d="M86.4794097,188.354056 L37.9685239,104.472965 C36.7592207,102.38176 36.1229316,100.010046 36.1229316,97.5950657 C36.1229316,95.1808063 36.7592207,92.8090921 37.9685239,90.7178877 L86.4794097,6.87753851 C87.6885685,4.78640625 89.427908,3.04998552 91.5226274,1.84278371 C93.6173469,0.635509797 95.9930477,0 98.4120875,0 L195.392543,0 C197.81086,0 200.187283,0.635509797 202.282003,1.84278371 C204.376722,3.04998552 206.116062,4.78640625 207.32522,6.87753851 L256,90.7993726 L232.133922,104.555171 L187.600909,27.5919273 L106.531654,27.5919273 L65.9762234,97.6772716 L110.509454,174.680464 L86.4794097,188.354056 Z"/><path fill="#05D2DD" d="M157.587912,234 L60.4028972,234 C57.9842185,234 55.6077231,233.363985 53.5130759,232.156856 C51.4184287,230.949726 49.6792337,229.213305 48.4698582,227.122101 L0,143.323215 L23.8249781,129.568138 L68.3578472,206.571331 L149.386725,206.571331 L189.900766,136.445316 L145.408925,59.4827218 L169.23383,45.7275006 L217.744644,129.568138 C218.953803,131.658622 219.590164,134.031057 219.590164,136.445316 C219.590164,138.859576 218.953803,141.232011 217.744644,143.323215 L169.23383,227.204307 C168.044897,229.243592 166.347451,230.941794 164.306906,232.132338 C162.26636,233.322882 159.951334,233.966829 157.587912,234 Z"/></g></svg>