<svg xmlns="http://www.w3.org/2000/svg" width="150" height="150" viewBox="0 0 150 150"><g fill="none" transform="translate(11 16.5)"><path fill="#9C6CFF" d="M43.2397049,94.1770282 L18.984262,52.2364824 C18.3796103,51.1908802 18.0614658,50.0050231 18.0614658,48.7975328 C18.0614658,47.5904031 18.3796103,46.404546 18.984262,45.3589439 L43.2397049,3.43876925 C43.8442842,2.39320312 44.713954,1.52499276 45.7613137,0.921391856 C46.8086734,0.317754898 47.9965238,0 49.2060438,0 L97.6962713,0 C98.9054301,0 100.093642,0.317754898 101.141001,0.921391856 C102.188361,1.52499276 103.058031,2.39320312 103.66261,3.43876925 L128,45.3996863 L116.066961,52.2775853 L93.8004543,13.7959637 L53.2658268,13.7959637 L32.9881117,48.8386358 L55.2547268,87.3402321 L43.2397049,94.1770282 Z"/><path fill="#05D2DD" d="M78.7939562,117 L30.2014486,117 C28.9921093,117 27.8038616,116.681993 26.756538,116.078428 C25.7092143,115.474863 24.8396168,114.606653 24.2349291,113.56105 L0,71.6616076 L11.912489,64.7840691 L34.1789236,103.285665 L74.6933623,103.285665 L94.950383,68.2226581 L72.7044623,29.7413609 L84.6169152,22.8637503 L108.872322,64.7840691 C109.476901,65.8293108 109.795082,67.0155284 109.795082,68.2226581 C109.795082,69.4297878 109.476901,70.6160054 108.872322,71.6616076 L84.6169152,113.602153 C84.0224483,114.621796 83.1737257,115.470897 82.1534529,116.066169 C81.13318,116.661441 79.9756669,116.983415 78.7939562,117 Z"/></g></svg>