<svg xmlns="http://www.w3.org/2000/svg" width="600" height="600" viewBox="0 0 600 600"><g fill="none" transform="translate(44 66)"><path fill="#9C6CFF" d="M172.958819,376.708113 L75.9370478,208.945929 C73.5184414,204.763521 72.2458632,200.020092 72.2458632,195.190131 C72.2458632,190.361613 73.5184414,185.618184 75.9370478,181.435775 L172.958819,13.755077 C175.377137,9.57281249 178.855816,6.09997103 183.045255,3.68556742 C187.234694,1.27101959 191.986095,0 196.824175,0 L390.785085,0 C395.62172,0 400.374567,1.27101959 404.564005,3.68556742 C408.753444,6.09997103 412.232123,9.57281249 414.650441,13.755077 L512,181.598745 L464.267844,209.110341 L375.201817,55.1838546 L213.063307,55.1838546 L131.952447,195.354543 L221.018907,349.360928 L172.958819,376.708113 Z"/><path fill="#05D2DD" d="M315.175825,468 L120.805794,468 C115.968437,468 111.215446,466.727971 107.026152,464.313711 C102.836857,461.899452 99.3584673,458.426611 96.9397164,454.244202 L0,286.646431 L47.6499561,259.136277 L136.715694,413.142662 L298.773449,413.142662 L379.801532,272.890632 L290.817849,118.965444 L338.467661,91.4550012 L435.489288,259.136277 C437.907605,263.317243 439.180328,268.062114 439.180328,272.890632 C439.180328,277.719151 437.907605,282.464022 435.489288,286.646431 L338.467661,454.408614 C336.089793,458.487183 332.694903,461.883588 328.613811,464.264676 C324.53272,466.645765 319.902668,467.933658 315.175825,468 Z"/></g></svg>