<svg xmlns="http://www.w3.org/2000/svg" width="150" height="150" viewBox="0 0 150 150"><g fill="#7A7AB8" fill-rule="evenodd" transform="translate(28.5 18.25)"><path d="M93,18.0568182 C93,43.700402 72.1812396,64.4886364 46.5,64.4886364 C20.8187604,64.4886364 0,43.700402 0,18.0568182 C0,8.0843277 8.09619896,0 18.0833333,0 C28.0704677,0 36.1666667,8.0843277 36.1666667,18.0568182 L36.1666667,52.6749631 C42.8678333,54.6663722 50.1321667,54.6663722 56.8333333,52.6749631 L56.8333333,18.0568182 C56.8333333,8.0843277 64.9295,0 74.9166667,0 C84.9038333,0 93,8.0843277 93,18.0568182 Z M18.0833333,10.3181818 C22.3635292,10.3181818 25.8333333,13.7828983 25.8333333,18.0568182 L25.8333333,47.6974077 C16.4636802,41.1714801 10.3333333,30.3289734 10.3333333,18.0568182 C10.3333333,13.7828983 13.8031375,10.3181818 18.0833333,10.3181818 Z M67.1666667,18.0568182 L67.1666667,47.6974077 C76.5364167,41.1714801 82.6666667,30.3289734 82.6666667,18.0568182 C82.6666667,13.7828983 79.1969271,10.3181818 74.9166667,10.3181818 C70.6364063,10.3181818 67.1666667,13.7828983 67.1666667,18.0568182 Z"/><path fill-rule="nonzero" d="M67.1666667,95.4431818 L67.1666667,70.9381449 C53.9948958,76.0753097 38.9944479,76.0714403 25.8333333,70.9381449 L25.8333333,95.4431818 C25.8333333,99.7171662 22.3635292,103.181818 18.0833333,103.181818 C13.8031375,103.181818 10.3333333,99.7171662 10.3333333,95.4431818 L10.3333333,61.8352514 C6.41254375,58.6017912 2.93347833,54.8537116 0,50.6941946 L0,95.4431818 C0,105.415705 8.09619896,113.5 18.0833333,113.5 C28.0704677,113.5 36.1666667,105.415705 36.1666667,95.4431818 L36.1666667,84.336304 C43.0002292,85.3897259 49.9997708,85.3897259 56.8333333,84.336304 L56.8333333,95.4431818 C56.8333333,105.415705 64.9295,113.5 74.9166667,113.5 C84.9038333,113.5 93,105.415705 93,95.4431818 L93,50.6941946 C90.066625,54.8537116 86.5875208,58.6017912 82.6666667,61.8352514 L82.6666667,95.4431818 C82.6666667,99.7171662 79.1969271,103.181818 74.9166667,103.181818 C70.6364063,103.181818 67.1666667,99.7171662 67.1666667,95.4431818 Z"/></g></svg>