<svg xmlns="http://www.w3.org/2000/svg" width="300" height="300" viewBox="0 0 300 300"><g fill="#7A7AB8" fill-rule="evenodd" transform="translate(57 36.5)"><path d="M186,36.1136364 C186,87.400804 144.362479,128.977273 93,128.977273 C41.6375208,128.977273 0,87.400804 0,36.1136364 C0,16.1686554 16.1923979,0 36.1666667,0 C56.1409354,0 72.3333333,16.1686554 72.3333333,36.1136364 L72.3333333,105.349926 C85.7356667,109.332744 100.264333,109.332744 113.666667,105.349926 L113.666667,36.1136364 C113.666667,16.1686554 129.859,0 149.833333,0 C169.807667,0 186,16.1686554 186,36.1136364 Z M36.1666667,20.6363636 C44.7270583,20.6363636 51.6666667,27.5657966 51.6666667,36.1136364 L51.6666667,95.3948153 C32.9273604,82.3429602 20.6666667,60.6579469 20.6666667,36.1136364 C20.6666667,27.5657966 27.606275,20.6363636 36.1666667,20.6363636 Z M134.333333,36.1136364 L134.333333,95.3948153 C153.072833,82.3429602 165.333333,60.6579469 165.333333,36.1136364 C165.333333,27.5657966 158.393854,20.6363636 149.833333,20.6363636 C141.272813,20.6363636 134.333333,27.5657966 134.333333,36.1136364 Z"/><path fill-rule="nonzero" d="M134.333333,190.886364 L134.333333,141.87629 C107.989792,152.150619 77.9888958,152.142881 51.6666667,141.87629 L51.6666667,190.886364 C51.6666667,199.434332 44.7270583,206.363636 36.1666667,206.363636 C27.606275,206.363636 20.6666667,199.434332 20.6666667,190.886364 L20.6666667,123.670503 C12.8250875,117.203582 5.86695667,109.707423 0,101.388389 L0,190.886364 C0,210.831409 16.1923979,227 36.1666667,227 C56.1409354,227 72.3333333,210.831409 72.3333333,190.886364 L72.3333333,168.672608 C86.0004583,170.779452 99.9995417,170.779452 113.666667,168.672608 L113.666667,190.886364 C113.666667,210.831409 129.859,227 149.833333,227 C169.807667,227 186,210.831409 186,190.886364 L186,101.388389 C180.13325,109.707423 173.175042,117.203582 165.333333,123.670503 L165.333333,190.886364 C165.333333,199.434332 158.393854,206.363636 149.833333,206.363636 C141.272813,206.363636 134.333333,199.434332 134.333333,190.886364 Z"/></g></svg>