<svg xmlns="http://www.w3.org/2000/svg" width="600" height="600" viewBox="0 0 600 600"><g fill="#7A7AB8" fill-rule="evenodd" transform="translate(114 73)"><path d="M372,72.2272727 C372,174.801608 288.724958,257.954545 186,257.954545 C83.2750417,257.954545 0,174.801608 0,72.2272727 C0,32.3373108 32.3847958,0 72.3333333,0 C112.281871,0 144.666667,32.3373108 144.666667,72.2272727 L144.666667,210.699852 C171.471333,218.665489 200.528667,218.665489 227.333333,210.699852 L227.333333,72.2272727 C227.333333,32.3373108 259.718,0 299.666667,0 C339.615333,0 372,32.3373108 372,72.2272727 Z M72.3333333,41.2727273 C89.4541167,41.2727273 103.333333,55.1315932 103.333333,72.2272727 L103.333333,190.789631 C65.8547208,164.68592 41.3333333,121.315894 41.3333333,72.2272727 C41.3333333,55.1315932 55.21255,41.2727273 72.3333333,41.2727273 Z M268.666667,72.2272727 L268.666667,190.789631 C306.145667,164.68592 330.666667,121.315894 330.666667,72.2272727 C330.666667,55.1315932 316.787708,41.2727273 299.666667,41.2727273 C282.545625,41.2727273 268.666667,55.1315932 268.666667,72.2272727 Z"/><path fill-rule="nonzero" d="M268.666667,381.772727 L268.666667,283.75258 C215.979583,304.301239 155.977792,304.285761 103.333333,283.75258 L103.333333,381.772727 C103.333333,398.868665 89.4541167,412.727273 72.3333333,412.727273 C55.21255,412.727273 41.3333333,398.868665 41.3333333,381.772727 L41.3333333,247.341006 C25.650175,234.407165 11.7339133,219.414847 0,202.776778 L0,381.772727 C0,421.662818 32.3847958,454 72.3333333,454 C112.281871,454 144.666667,421.662818 144.666667,381.772727 L144.666667,337.345216 C172.000917,341.558903 199.999083,341.558903 227.333333,337.345216 L227.333333,381.772727 C227.333333,421.662818 259.718,454 299.666667,454 C339.615333,454 372,421.662818 372,381.772727 L372,202.776778 C360.2665,219.414847 346.350083,234.407165 330.666667,247.341006 L330.666667,381.772727 C330.666667,398.868665 316.787708,412.727273 299.666667,412.727273 C282.545625,412.727273 268.666667,398.868665 268.666667,381.772727 Z"/></g></svg>