<?xml version="1.0" encoding="UTF-8"?>
<svg width="600px" height="600px" viewBox="0 0 600 600" version="1.1" xmlns="http://www.w3.org/2000/svg" xmlns:xlink="http://www.w3.org/1999/xlink">
    <title>metamask600@2x</title>
    <g id="metamask600" stroke="none" stroke-width="1" fill="none" fill-rule="evenodd" stroke-linecap="round" stroke-linejoin="round">
        <g id="MetaMask_Fox" transform="translate(49.000000, 67.000000)" fill-rule="nonzero" stroke-width="1.97254902">
            <polygon id="Path" stroke="#E2761B" fill="#E2761B" points="477.948627 0 281.68 145.674281 317.974902 59.7284264"></polygon>
            <path d="M24.8541176,0 L219.544706,147.054146 L185.025098,59.7284264 L24.8541176,0 Z M407.331373,337.672589 L355.058824,417.704738 L466.902353,448.456007 L499.054902,339.446701 L407.331373,337.672589 Z M4.14235294,339.446701 L36.0976471,448.456007 L147.941176,417.704738 L95.6686275,337.672589 L4.14235294,339.446701 Z" id="Shape" stroke="#E4761B" fill="#E4761B"></path>
            <path d="M141.62902,202.445854 L110.462745,249.558376 L221.517255,254.486464 L217.572157,135.226734 L141.62902,202.445854 Z M361.173725,202.445854 L284.244314,133.84687 L281.68,254.486464 L392.537255,249.558376 L361.173725,202.445854 Z M147.941176,417.704738 L214.613333,385.179357 L157.014902,340.235195 L147.941176,417.704738 Z M288.189412,385.179357 L355.058824,417.704738 L345.787843,340.235195 L288.189412,385.179357 Z" id="Shape" stroke="#E4761B" fill="#E4761B"></path>
            <path d="M355.058824,417.704738 L288.189412,385.179357 L293.515294,428.743655 L292.923529,447.076142 L355.058824,417.704738 Z M147.941176,417.704738 L210.076471,447.076142 L209.681961,428.743655 L214.613333,385.179357 L147.941176,417.704738 Z" id="Shape" stroke="#D7C1B3" fill="#D7C1B3"></path>
            <path d="M211.062745,311.455161 L155.436863,295.093909 L194.690588,277.155668 L211.062745,311.455161 Z M291.74,311.455161 L308.112157,277.155668 L347.563137,295.093909 L291.74,311.455161 Z" id="Shape" stroke="#233447" fill="#233447"></path>
            <path d="M147.941176,417.704738 L157.409412,337.672589 L95.6686275,339.446701 L147.941176,417.704738 Z M345.590588,337.672589 L355.058824,417.704738 L407.331373,339.446701 L345.590588,337.672589 Z M392.537255,249.558376 L281.68,254.486464 L291.937255,311.455161 L308.309412,277.155668 L347.760392,295.093909 L392.537255,249.558376 Z M155.436863,295.093909 L194.887843,277.155668 L211.062745,311.455161 L221.517255,254.486464 L110.462745,249.558376 L155.436863,295.093909 Z" id="Shape" stroke="#CD6116" fill="#CD6116"></path>
            <path d="M110.462745,249.558376 L157.014902,340.235195 L155.436863,295.093909 L110.462745,249.558376 Z M347.760392,295.093909 L345.787843,340.235195 L392.537255,249.558376 L347.760392,295.093909 Z M221.517255,254.486464 L211.062745,311.455161 L224.081569,378.674281 L227.040392,290.165821 L221.517255,254.486464 Z M281.68,254.486464 L276.354118,289.968697 L278.721176,378.674281 L291.937255,311.455161 L281.68,254.486464 Z" id="Shape" stroke="#E4751F" fill="#E4751F"></path>
            <path d="M291.937255,311.455161 L278.721176,378.674281 L288.189412,385.179357 L345.787843,340.235195 L347.760392,295.093909 L291.937255,311.455161 Z M155.436863,295.093909 L157.014902,340.235195 L214.613333,385.179357 L224.081569,378.674281 L211.062745,311.455161 L155.436863,295.093909 Z" id="Shape" stroke="#F6851B" fill="#F6851B"></path>
            <polygon id="Path" stroke="#C0AD9E" fill="#C0AD9E" points="292.923529 447.076142 293.515294 428.743655 288.583922 424.406937 214.218824 424.406937 209.681961 428.743655 210.076471 447.076142 147.941176 417.704738 169.639216 435.445854 213.627059 466 289.175686 466 333.360784 435.445854 355.058824 417.704738"></polygon>
            <polygon id="Path" stroke="#161616" fill="#161616" points="288.189412 385.179357 278.721176 378.674281 224.081569 378.674281 214.613333 385.179357 209.681961 428.743655 214.218824 424.406937 288.583922 424.406937 293.515294 428.743655"></polygon>
            <path d="M486.233333,155.13621 L503,74.7098139 L477.948627,0 L288.189412,140.746193 L361.173725,202.445854 L464.338039,232.605753 L487.219608,205.994078 L477.356863,198.897631 L493.137255,184.507614 L480.907451,175.045685 L496.687843,163.021151 L486.233333,155.13621 Z M0,74.7098139 L16.7666667,155.13621 L6.11490196,163.021151 L21.8952941,175.045685 L9.8627451,184.507614 L25.6431373,198.897631 L15.7803922,205.994078 L38.4647059,232.605753 L141.62902,202.445854 L214.613333,140.746193 L24.8541176,0 L0,74.7098139 Z" id="Shape" stroke="#763D16" fill="#763D16"></path>
            <path d="M464.338039,232.605753 L361.173725,202.445854 L392.537255,249.558376 L345.787843,340.235195 L407.331373,339.446701 L499.054902,339.446701 L464.338039,232.605753 Z M141.62902,202.445854 L38.4647059,232.605753 L4.14235294,339.446701 L95.6686275,339.446701 L157.014902,340.235195 L110.462745,249.558376 L141.62902,202.445854 Z M281.68,254.486464 L288.189412,140.746193 L318.172157,59.7284264 L185.025098,59.7284264 L214.613333,140.746193 L221.517255,254.486464 L223.884314,290.362944 L224.081569,378.674281 L278.721176,378.674281 L279.115686,290.362944 L281.68,254.486464 Z" id="Shape" stroke="#F6851B" fill="#F6851B"></path>
        </g>
    </g>
</svg>