<?xml version="1.0" encoding="UTF-8"?>
<svg width="300px" height="300px" viewBox="0 0 300 300" version="1.1" xmlns="http://www.w3.org/2000/svg" xmlns:xlink="http://www.w3.org/1999/xlink">
    <title>metamask300@2x</title>
    <g id="metamask300" stroke="none" stroke-width="1" fill="none" fill-rule="evenodd" stroke-linecap="round" stroke-linejoin="round">
        <g id="MetaMask_Fox" transform="translate(24.500000, 33.500000)" fill-rule="nonzero" stroke-width="0.98627451">
            <polygon id="Path" stroke="#E2761B" fill="#E2761B" points="238.974314 0 140.84 72.8371404 158.987451 29.8642132"></polygon>
            <path d="M12.4270588,0 L109.772353,73.5270728 L92.512549,29.8642132 L12.4270588,0 Z M203.665686,168.836294 L177.529412,208.852369 L233.451176,224.228003 L249.527451,169.72335 L203.665686,168.836294 Z M2.07117647,169.72335 L18.0488235,224.228003 L73.9705882,208.852369 L47.8343137,168.836294 L2.07117647,169.72335 Z" id="Shape" stroke="#E4761B" fill="#E4761B"></path>
            <path d="M70.8145098,101.222927 L55.2313725,124.779188 L110.758627,127.243232 L108.786078,67.6133672 L70.8145098,101.222927 Z M180.586863,101.222927 L142.122157,66.9234349 L140.84,127.243232 L196.268627,124.779188 L180.586863,101.222927 Z M73.9705882,208.852369 L107.306667,192.589679 L78.507451,170.117597 L73.9705882,208.852369 Z M144.094706,192.589679 L177.529412,208.852369 L172.893922,170.117597 L144.094706,192.589679 Z" id="Shape" stroke="#E4761B" fill="#E4761B"></path>
            <path d="M177.529412,208.852369 L144.094706,192.589679 L146.757647,214.371827 L146.461765,223.538071 L177.529412,208.852369 Z M73.9705882,208.852369 L105.038235,223.538071 L104.84098,214.371827 L107.306667,192.589679 L73.9705882,208.852369 Z" id="Shape" stroke="#D7C1B3" fill="#D7C1B3"></path>
            <path d="M105.531373,155.72758 L77.7184314,147.546954 L97.3452941,138.577834 L105.531373,155.72758 Z M145.87,155.72758 L154.056078,138.577834 L173.781569,147.546954 L145.87,155.72758 Z" id="Shape" stroke="#233447" fill="#233447"></path>
            <path d="M73.9705882,208.852369 L78.7047059,168.836294 L47.8343137,169.72335 L73.9705882,208.852369 Z M172.795294,168.836294 L177.529412,208.852369 L203.665686,169.72335 L172.795294,168.836294 Z M196.268627,124.779188 L140.84,127.243232 L145.968627,155.72758 L154.154706,138.577834 L173.880196,147.546954 L196.268627,124.779188 Z M77.7184314,147.546954 L97.4439216,138.577834 L105.531373,155.72758 L110.758627,127.243232 L55.2313725,124.779188 L77.7184314,147.546954 Z" id="Shape" stroke="#CD6116" fill="#CD6116"></path>
            <path d="M55.2313725,124.779188 L78.507451,170.117597 L77.7184314,147.546954 L55.2313725,124.779188 Z M173.880196,147.546954 L172.893922,170.117597 L196.268627,124.779188 L173.880196,147.546954 Z M110.758627,127.243232 L105.531373,155.72758 L112.040784,189.33714 L113.520196,145.08291 L110.758627,127.243232 Z M140.84,127.243232 L138.177059,144.984349 L139.360588,189.33714 L145.968627,155.72758 L140.84,127.243232 Z" id="Shape" stroke="#E4751F" fill="#E4751F"></path>
            <path d="M145.968627,155.72758 L139.360588,189.33714 L144.094706,192.589679 L172.893922,170.117597 L173.880196,147.546954 L145.968627,155.72758 Z M77.7184314,147.546954 L78.507451,170.117597 L107.306667,192.589679 L112.040784,189.33714 L105.531373,155.72758 L77.7184314,147.546954 Z" id="Shape" stroke="#F6851B" fill="#F6851B"></path>
            <polygon id="Path" stroke="#C0AD9E" fill="#C0AD9E" points="146.461765 223.538071 146.757647 214.371827 144.291961 212.203469 107.109412 212.203469 104.84098 214.371827 105.038235 223.538071 73.9705882 208.852369 84.8196078 217.722927 106.813529 233 144.587843 233 166.680392 217.722927 177.529412 208.852369"></polygon>
            <polygon id="Path" stroke="#161616" fill="#161616" points="144.094706 192.589679 139.360588 189.33714 112.040784 189.33714 107.306667 192.589679 104.84098 214.371827 107.109412 212.203469 144.291961 212.203469 146.757647 214.371827"></polygon>
            <path d="M243.116667,77.5681049 L251.5,37.3549069 L238.974314,0 L144.094706,70.3730964 L180.586863,101.222927 L232.16902,116.302876 L243.609804,102.997039 L238.678431,99.4488156 L246.568627,92.2538071 L240.453725,87.5228426 L248.343922,81.5105753 L243.116667,77.5681049 Z M0,37.3549069 L8.38333333,77.5681049 L3.05745098,81.5105753 L10.9476471,87.5228426 L4.93137255,92.2538071 L12.8215686,99.4488156 L7.89019608,102.997039 L19.2323529,116.302876 L70.8145098,101.222927 L107.306667,70.3730964 L12.4270588,0 L0,37.3549069 Z" id="Shape" stroke="#763D16" fill="#763D16"></path>
            <path d="M232.16902,116.302876 L180.586863,101.222927 L196.268627,124.779188 L172.893922,170.117597 L203.665686,169.72335 L249.527451,169.72335 L232.16902,116.302876 Z M70.8145098,101.222927 L19.2323529,116.302876 L2.07117647,169.72335 L47.8343137,169.72335 L78.507451,170.117597 L55.2313725,124.779188 L70.8145098,101.222927 Z M140.84,127.243232 L144.094706,70.3730964 L159.086078,29.8642132 L92.512549,29.8642132 L107.306667,70.3730964 L110.758627,127.243232 L111.942157,145.181472 L112.040784,189.33714 L139.360588,189.33714 L139.557843,145.181472 L140.84,127.243232 Z" id="Shape" stroke="#F6851B" fill="#F6851B"></path>
        </g>
    </g>
</svg>