<?xml version="1.0" encoding="UTF-8"?>
<svg width="150px" height="150px" viewBox="0 0 150 150" version="1.1" xmlns="http://www.w3.org/2000/svg" xmlns:xlink="http://www.w3.org/1999/xlink">
    <title>metamask150@2x</title>
    <g id="metamask150" stroke="none" stroke-width="1" fill="none" fill-rule="evenodd" stroke-linecap="round" stroke-linejoin="round">
        <g id="MetaMask_Fox" transform="translate(12.250000, 16.750000)" fill-rule="nonzero" stroke-width="0.5">
            <polygon id="Path" stroke="#E2761B" fill="#E2761B" points="119.487157 0 70.42 36.4185702 79.4937255 14.9321066"></polygon>
            <path d="M6.21352941,0 L54.8861765,36.7635364 L46.2562745,14.9321066 L6.21352941,0 Z M101.832843,84.4181472 L88.7647059,104.426184 L116.725588,112.114002 L124.763725,84.8616751 L101.832843,84.4181472 Z M1.03558824,84.8616751 L9.02441176,112.114002 L36.9852941,104.426184 L23.9171569,84.4181472 L1.03558824,84.8616751 Z" id="Shape" stroke="#E4761B" fill="#E4761B"></path>
            <path d="M35.4072549,50.6114636 L27.6156863,62.3895939 L55.3793137,63.6216159 L54.3930392,33.8066836 L35.4072549,50.6114636 Z M90.2934314,50.6114636 L71.0610784,33.4617174 L70.42,63.6216159 L98.1343137,62.3895939 L90.2934314,50.6114636 Z M36.9852941,104.426184 L53.6533333,96.2948393 L39.2537255,85.0587986 L36.9852941,104.426184 Z M72.0473529,96.2948393 L88.7647059,104.426184 L86.4469608,85.0587986 L72.0473529,96.2948393 Z" id="Shape" stroke="#E4761B" fill="#E4761B"></path>
            <path d="M88.7647059,104.426184 L72.0473529,96.2948393 L73.3788235,107.185914 L73.2308824,111.769036 L88.7647059,104.426184 Z M36.9852941,104.426184 L52.5191176,111.769036 L52.4204902,107.185914 L53.6533333,96.2948393 L36.9852941,104.426184 Z" id="Shape" stroke="#D7C1B3" fill="#D7C1B3"></path>
            <path d="M52.7656863,77.8637902 L38.8592157,73.7734772 L48.6726471,69.2889171 L52.7656863,77.8637902 Z M72.935,77.8637902 L77.0280392,69.2889171 L86.8907843,73.7734772 L72.935,77.8637902 Z" id="Shape" stroke="#233447" fill="#233447"></path>
            <path d="M36.9852941,104.426184 L39.3523529,84.4181472 L23.9171569,84.8616751 L36.9852941,104.426184 Z M86.3976471,84.4181472 L88.7647059,104.426184 L101.832843,84.8616751 L86.3976471,84.4181472 Z M98.1343137,62.3895939 L70.42,63.6216159 L72.9843137,77.8637902 L77.0773529,69.2889171 L86.940098,73.7734772 L98.1343137,62.3895939 Z M38.8592157,73.7734772 L48.7219608,69.2889171 L52.7656863,77.8637902 L55.3793137,63.6216159 L27.6156863,62.3895939 L38.8592157,73.7734772 Z" id="Shape" stroke="#CD6116" fill="#CD6116"></path>
            <path d="M27.6156863,62.3895939 L39.2537255,85.0587986 L38.8592157,73.7734772 L27.6156863,62.3895939 Z M86.940098,73.7734772 L86.4469608,85.0587986 L98.1343137,62.3895939 L86.940098,73.7734772 Z M55.3793137,63.6216159 L52.7656863,77.8637902 L56.0203922,94.6685702 L56.760098,72.5414552 L55.3793137,63.6216159 Z M70.42,63.6216159 L69.0885294,72.4921743 L69.6802941,94.6685702 L72.9843137,77.8637902 L70.42,63.6216159 Z" id="Shape" stroke="#E4751F" fill="#E4751F"></path>
            <path d="M72.9843137,77.8637902 L69.6802941,94.6685702 L72.0473529,96.2948393 L86.4469608,85.0587986 L86.940098,73.7734772 L72.9843137,77.8637902 Z M38.8592157,73.7734772 L39.2537255,85.0587986 L53.6533333,96.2948393 L56.0203922,94.6685702 L52.7656863,77.8637902 L38.8592157,73.7734772 Z" id="Shape" stroke="#F6851B" fill="#F6851B"></path>
            <polygon id="Path" stroke="#C0AD9E" fill="#C0AD9E" points="73.2308824 111.769036 73.3788235 107.185914 72.1459804 106.101734 53.5547059 106.101734 52.4204902 107.185914 52.5191176 111.769036 36.9852941 104.426184 42.4098039 108.861464 53.4067647 116.5 72.2939216 116.5 83.3401961 108.861464 88.7647059 104.426184"></polygon>
            <polygon id="Path" stroke="#161616" fill="#161616" points="72.0473529 96.2948393 69.6802941 94.6685702 56.0203922 94.6685702 53.6533333 96.2948393 52.4204902 107.185914 53.5547059 106.101734 72.1459804 106.101734 73.3788235 107.185914"></polygon>
            <path d="M121.558333,38.7840525 L125.75,18.6774535 L119.487157,0 L72.0473529,35.1865482 L90.2934314,50.6114636 L116.08451,58.1514382 L121.804902,51.4985195 L119.339216,49.7244078 L123.284314,46.1269036 L120.226863,43.7614213 L124.171961,40.7552876 L121.558333,38.7840525 Z M0,18.6774535 L4.19166667,38.7840525 L1.52872549,40.7552876 L5.47382353,43.7614213 L2.46568627,46.1269036 L6.41078431,49.7244078 L3.94509804,51.4985195 L9.61617647,58.1514382 L35.4072549,50.6114636 L53.6533333,35.1865482 L6.21352941,0 L0,18.6774535 Z" id="Shape" stroke="#763D16" fill="#763D16"></path>
            <path d="M116.08451,58.1514382 L90.2934314,50.6114636 L98.1343137,62.3895939 L86.4469608,85.0587986 L101.832843,84.8616751 L124.763725,84.8616751 L116.08451,58.1514382 Z M35.4072549,50.6114636 L9.61617647,58.1514382 L1.03558824,84.8616751 L23.9171569,84.8616751 L39.2537255,85.0587986 L27.6156863,62.3895939 L35.4072549,50.6114636 Z M70.42,63.6216159 L72.0473529,35.1865482 L79.5430392,14.9321066 L46.2562745,14.9321066 L53.6533333,35.1865482 L55.3793137,63.6216159 L55.9710784,72.590736 L56.0203922,94.6685702 L69.6802941,94.6685702 L69.7789216,72.590736 L70.42,63.6216159 Z" id="Shape" stroke="#F6851B" fill="#F6851B"></path>
        </g>
    </g>
</svg>