<?xml version="1.0" encoding="UTF-8"?>
<svg width="150px" height="150px" viewBox="0 0 150 150" version="1.1" xmlns="http://www.w3.org/2000/svg" xmlns:xlink="http://www.w3.org/1999/xlink">
    <title>phantom150@2x</title>
    <defs>
        <linearGradient x1="50%" y1="0%" x2="50%" y2="100%" id="linearGradient-1">
            <stop stop-color="#534BB1" offset="0%"></stop>
            <stop stop-color="#551BF9" offset="100%"></stop>
        </linearGradient>
        <linearGradient x1="49.9999164%" y1="0%" x2="49.9999164%" y2="100%" id="linearGradient-2">
            <stop stop-color="#FFFFFF" offset="0%"></stop>
            <stop stop-color="#FFFFFF" stop-opacity="0.82" offset="100%"></stop>
        </linearGradient>
    </defs>
    <g id="phantom150" stroke="none" stroke-width="1" fill="none" fill-rule="evenodd">
        <g id="phantom-icon-purple" transform="translate(7.250000, 7.250000)" fill-rule="nonzero">
            <circle id="Oval" fill="url(#linearGradient-1)" cx="67.75" cy="67.75" r="67.75"></circle>
            <path d="M117.063531,68.7177664 L104.951102,68.7177664 C104.951102,44.2122738 84.8706367,24.3476562 60.0989078,24.3476562 C35.6335359,24.3476562 15.7429828,43.7259559 15.2562414,67.811716 C14.7525625,92.7084648 38.3644961,114.328125 63.5353148,114.328125 L66.701357,114.328125 C88.892552,114.328125 118.635543,97.1436551 123.28277,76.2054117 C124.141289,72.345673 121.058664,68.7177664 117.063531,68.7177664 Z M42.099109,69.8093883 C42.099109,73.086477 39.3897441,75.7666246 36.0770867,75.7666246 C32.7644293,75.7666246 30.0551703,73.0852066 30.0551703,69.8093883 L30.0551703,60.1719508 C30.0551703,56.8948621 32.7644293,54.2147145 36.0770867,54.2147145 C39.3897441,54.2147145 42.099109,56.8948621 42.099109,60.1719508 L42.099109,69.8093883 Z M63.0100406,69.8093883 C63.0100406,73.086477 60.3007816,75.7666246 56.9881242,75.7666246 C53.6754668,75.7666246 50.966102,73.0852066 50.966102,69.8093883 L50.966102,60.1719508 C50.966102,56.8948621 53.6766312,54.2147145 56.9881242,54.2147145 C60.3007816,54.2147145 63.0100406,56.8948621 63.0100406,60.1719508 L63.0100406,69.8093883 Z" id="Shape" fill="url(#linearGradient-2)"></path>
        </g>
    </g>
</svg>