<?xml version="1.0" encoding="UTF-8"?>
<svg width="600px" height="600px" viewBox="0 0 600 600" version="1.1" xmlns="http://www.w3.org/2000/svg" xmlns:xlink="http://www.w3.org/1999/xlink">
    <title>phantom600@2x</title>
    <defs>
        <linearGradient x1="50%" y1="0%" x2="50%" y2="100%" id="linearGradient-1">
            <stop stop-color="#534BB1" offset="0%"></stop>
            <stop stop-color="#551BF9" offset="100%"></stop>
        </linearGradient>
        <linearGradient x1="49.9999164%" y1="0%" x2="49.9999164%" y2="100%" id="linearGradient-2">
            <stop stop-color="#FFFFFF" offset="0%"></stop>
            <stop stop-color="#FFFFFF" stop-opacity="0.82" offset="100%"></stop>
        </linearGradient>
    </defs>
    <g id="phantom600" stroke="none" stroke-width="1" fill="none" fill-rule="evenodd">
        <g id="phantom-icon-purple" transform="translate(29.000000, 29.000000)" fill-rule="nonzero">
            <circle id="Oval" fill="url(#linearGradient-1)" cx="271" cy="271" r="271"></circle>
            <path d="M468.254125,274.871066 L419.804406,274.871066 C419.804406,176.849095 339.482547,97.390625 240.395631,97.390625 C142.534144,97.390625 62.9719313,174.903823 61.0249656,271.246864 C59.01025,370.833859 153.457984,457.3125 254.141259,457.3125 L266.805428,457.3125 C355.570208,457.3125 474.542172,388.57462 493.131078,304.821647 C496.565156,289.382692 484.234656,274.871066 468.254125,274.871066 Z M168.396436,279.237553 C168.396436,292.345908 157.558977,303.066498 144.308347,303.066498 C131.057717,303.066498 120.220681,292.340827 120.220681,279.237553 L120.220681,240.687803 C120.220681,227.579448 131.057717,216.858858 144.308347,216.858858 C157.558977,216.858858 168.396436,227.579448 168.396436,240.687803 L168.396436,279.237553 Z M252.040163,279.237553 C252.040163,292.345908 241.203127,303.066498 227.952497,303.066498 C214.701867,303.066498 203.864408,292.340827 203.864408,279.237553 L203.864408,240.687803 C203.864408,227.579448 214.706525,216.858858 227.952497,216.858858 C241.203127,216.858858 252.040163,227.579448 252.040163,240.687803 L252.040163,279.237553 Z" id="Shape" fill="url(#linearGradient-2)"></path>
        </g>
    </g>
</svg>