<?xml version="1.0" encoding="UTF-8"?>
<svg width="300px" height="300px" viewBox="0 0 300 300" version="1.1" xmlns="http://www.w3.org/2000/svg" xmlns:xlink="http://www.w3.org/1999/xlink">
    <title>phantom300@2x</title>
    <defs>
        <linearGradient x1="50%" y1="0%" x2="50%" y2="100%" id="linearGradient-1">
            <stop stop-color="#534BB1" offset="0%"></stop>
            <stop stop-color="#551BF9" offset="100%"></stop>
        </linearGradient>
        <linearGradient x1="49.9999164%" y1="0%" x2="49.9999164%" y2="100%" id="linearGradient-2">
            <stop stop-color="#FFFFFF" offset="0%"></stop>
            <stop stop-color="#FFFFFF" stop-opacity="0.82" offset="100%"></stop>
        </linearGradient>
    </defs>
    <g id="phantom300" stroke="none" stroke-width="1" fill="none" fill-rule="evenodd">
        <g id="phantom-icon-purple" transform="translate(14.500000, 14.500000)" fill-rule="nonzero">
            <circle id="Oval" fill="url(#linearGradient-1)" cx="135.5" cy="135.5" r="135.5"></circle>
            <path d="M234.127062,137.435533 L209.902203,137.435533 C209.902203,88.4245477 169.741273,48.6953125 120.197816,48.6953125 C71.2670719,48.6953125 31.4859656,87.4519117 30.5124828,135.623432 C29.505125,185.41693 76.7289922,228.65625 127.07063,228.65625 L133.402714,228.65625 C177.785104,228.65625 237.271086,194.28731 246.565539,152.410823 C248.282578,144.691346 242.117328,137.435533 234.127062,137.435533 Z M84.198218,139.618777 C84.198218,146.172954 78.7794883,151.533249 72.1541734,151.533249 C65.5288586,151.533249 60.1103406,146.170413 60.1103406,139.618777 L60.1103406,120.343902 C60.1103406,113.789724 65.5288586,108.429429 72.1541734,108.429429 C78.7794883,108.429429 84.198218,113.789724 84.198218,120.343902 L84.198218,139.618777 Z M126.020081,139.618777 C126.020081,146.172954 120.601563,151.533249 113.976248,151.533249 C107.350934,151.533249 101.932204,146.170413 101.932204,139.618777 L101.932204,120.343902 C101.932204,113.789724 107.353262,108.429429 113.976248,108.429429 C120.601563,108.429429 126.020081,113.789724 126.020081,120.343902 L126.020081,139.618777 Z" id="Shape" fill="url(#linearGradient-2)"></path>
        </g>
    </g>
</svg>