<?xml version="1.0" encoding="UTF-8"?>
<svg width="150px" height="150px" viewBox="0 0 150 150" version="1.1" xmlns="http://www.w3.org/2000/svg" xmlns:xlink="http://www.w3.org/1999/xlink">
    <title>walletconnect150@2x</title>
    <g id="walletconnect150" stroke="none" stroke-width="1" fill="none" fill-rule="evenodd">
        <g id="WalletConnect" transform="translate(6.987500, 33.493750)" fill="#0098FF" fill-rule="nonzero">
            <path d="M27.8582727,16.2237047 C50.0158178,-5.40790155 85.9841822,-5.40790155 108.141727,16.2237047 L110.809238,18.8470207 C111.927871,19.9221503 111.927871,21.6853627 110.809238,22.7604922 L101.688073,31.6625648 C101.128757,32.2216321 100.225245,32.2216321 99.6659285,31.6625648 L96.008858,28.0931347 C80.5200886,12.9983161 55.4799114,12.9983161 39.991142,28.0931347 L36.0759253,31.9205959 C35.5166087,32.4796632 34.6130971,32.4796632 34.0537804,31.9205959 L24.9326163,23.0185233 C23.8139829,21.9433938 23.8139829,20.1801813 24.9326163,19.1050518 L27.8582727,16.2237047 Z M127.029421,34.6299223 L135.161025,42.5428756 C136.279658,43.6180052 136.279658,45.3812176 135.161025,46.4563472 L98.5472952,82.1936528 C97.4286618,83.2687824 95.6216387,83.2687824 94.5460297,82.1936528 C94.5460297,82.1936528 94.5460297,82.1936528 94.5460297,82.1936528 L68.5593167,56.8205959 C68.3011705,56.5625648 67.8279026,56.5625648 67.5697564,56.8205959 C67.5697564,56.8205959 67.5697564,56.8205959 67.5697564,56.8205959 L41.5830433,82.1936528 C40.46441,83.2687824 38.6573869,83.2687824 37.5817779,82.1936528 C37.5817779,82.1936528 37.5817779,82.1936528 37.5817779,82.1936528 L0.838975008,46.4563472 C-0.279658336,45.3812176 -0.279658336,43.6180052 0.838975008,42.5428756 L8.97057893,34.6299223 C10.0892123,33.5547927 11.8962354,33.5547927 12.9718444,34.6299223 L38.9585574,60.0029793 C39.2167036,60.2610104 39.6899715,60.2610104 39.9481177,60.0029793 C39.9481177,60.0029793 39.9481177,60.0029793 39.9481177,60.0029793 L65.9348307,34.6299223 C67.0534641,33.5547927 68.8604872,33.5547927 69.9360962,34.6299223 C69.9360962,34.6299223 69.9360962,34.6299223 69.9360962,34.6299223 L95.9228092,60.0029793 C96.1809554,60.2610104 96.6542233,60.2610104 96.9123695,60.0029793 L122.899083,34.6299223 C124.103765,33.5547927 125.910788,33.5547927 127.029421,34.6299223 L127.029421,34.6299223 Z" id="Shape"></path>
        </g>
    </g>
</svg>