<?xml version="1.0" encoding="UTF-8"?>
<svg width="300px" height="300px" viewBox="0 0 300 300" version="1.1" xmlns="http://www.w3.org/2000/svg" xmlns:xlink="http://www.w3.org/1999/xlink">
    <title>walletconnect300@2x</title>
    <g id="walletconnect300" stroke="none" stroke-width="1" fill="none" fill-rule="evenodd">
        <g id="WalletConnect" transform="translate(13.975000, 66.987500)" fill="#0098FF" fill-rule="nonzero">
            <path d="M55.7165454,32.4474093 C100.031636,-10.8158031 171.968364,-10.8158031 216.283455,32.4474093 L221.618475,37.6940415 C223.855742,39.8443005 223.855742,43.3707254 221.618475,45.5209845 L203.376147,63.3251295 C202.257513,64.4432642 200.45049,64.4432642 199.331857,63.3251295 L192.017716,56.1862694 C161.040177,25.9966321 110.959823,25.9966321 79.9822841,56.1862694 L72.1518507,63.8411917 C71.0332173,64.9593264 69.2261942,64.9593264 68.1075609,63.8411917 L49.8652325,46.0370466 C47.6279658,43.8867876 47.6279658,40.3603627 49.8652325,38.2101036 L55.7165454,32.4474093 Z M254.058842,69.2598446 L270.32205,85.0857513 C272.559317,87.2360104 272.559317,90.7624352 270.32205,92.9126943 L197.09459,164.387306 C194.857324,166.537565 191.243277,166.537565 189.092059,164.387306 C189.092059,164.387306 189.092059,164.387306 189.092059,164.387306 L137.118633,113.641192 C136.602341,113.12513 135.655805,113.12513 135.139513,113.641192 C135.139513,113.641192 135.139513,113.641192 135.139513,113.641192 L83.1660867,164.387306 C80.92882,166.537565 77.3147738,166.537565 75.1635558,164.387306 C75.1635558,164.387306 75.1635558,164.387306 75.1635558,164.387306 L1.67795002,92.9126943 C-0.559316672,90.7624352 -0.559316672,87.2360104 1.67795002,85.0857513 L17.9411579,69.2598446 C20.1784245,67.1095855 23.7924707,67.1095855 25.9436887,69.2598446 L77.9171148,120.005959 C78.4334071,120.522021 79.3799431,120.522021 79.8962354,120.005959 C79.8962354,120.005959 79.8962354,120.005959 79.8962354,120.005959 L131.869661,69.2598446 C134.106928,67.1095855 137.720974,67.1095855 139.872192,69.2598446 C139.872192,69.2598446 139.872192,69.2598446 139.872192,69.2598446 L191.845618,120.005959 C192.361911,120.522021 193.308447,120.522021 193.824739,120.005959 L245.798165,69.2598446 C248.207529,67.1095855 251.821575,67.1095855 254.058842,69.2598446 L254.058842,69.2598446 Z" id="Shape"></path>
        </g>
    </g>
</svg>