<svg xmlns="http://www.w3.org/2000/svg" width="300" height="300" viewBox="0 0 300 300"><defs><linearGradient id="a" x1="104.696%" x2="-24.099%" y1="95.151%" y2="12.112%"><stop offset="0%" stop-color="#FF6A1D"/><stop offset="100%" stop-color="#F800FF"/></linearGradient></defs><path fill="url(#a)" d="M236.323901,166.56271 C235.930498,166.087074 235.537409,165.611437 235.133934,165.145867 C233.364561,163.097988 231.481258,161.153604 229.494412,159.3124 C227.600724,157.564311 225.893351,155.506365 223.864962,153.892599 C222.281905,152.393023 220.708919,150.883066 219.156706,149.362414 L192.686927,123.256832 C192.686927,123.256832 230.33252,86.0533826 230.342905,86.0637636 C231.729575,84.6881299 233.116245,83.3228773 234.502599,81.9472437 C236.220358,80.2510588 238.04166,78.627226 239.55233,76.7344321 C241.021772,74.9036094 242.253283,72.8245876 243.360478,70.7562612 C245.63687,66.4947225 247.26147,61.9025662 248.161893,57.1550101 C248.720526,54.1866866 249,51.1560773 249,48.1361636 C249,21.5960921 227.393636,0 200.841085,0 C189.861973,0 179.131492,3.78549019 170.604702,10.6532144 L170.170069,11.0048771 L170.035683,11.1393262 C167.924521,12.8976395 165.968832,14.8317999 164.189073,16.9107274 L124.525792,56.0587185 C124.525792,56.0587185 84.6038075,16.6935138 84.5833505,16.6831643 C79.7819363,11.946115 75.0941371,7.64342999 68.9372109,4.7163786 C62.8942144,1.84104323 56.2714981,0.227541063 49.5763956,0.0310264679 C49.1005344,0.0206832634 48.6347444,0.0103211844 48.1588832,0.0103211844 C21.606301,0.0103211844 0,21.6064101 0,48.1465445 C0,60.5785228 4.7289335,72.3697131 13.307307,81.3577313 L37.3349295,105.011835 C46.627441,114.155253 58.8273637,118.726647 71.0379869,118.726647 C83.2586813,118.726647 95.4897616,114.134491 104.782273,104.960245 L139.416281,70.7767086 L179.100335,31.6081128 L184.108837,26.6537555 C188.910251,22.9199468 194.673773,20.9444513 200.799857,20.9444513 C215.804276,20.9444513 228.004199,33.1388315 228.004199,48.1361636 C228.004199,53.7730213 226.307212,59.140918 223.088855,63.7333889 L124.370633,161.267165 L107.855543,145.018457 C87.5634626,125.046131 54.5641258,125.066893 34.3032028,145.080428 L16.7531463,162.404981 L12.1380167,166.966309 L11.5481943,167.597031 C4.09775651,176.285259 0,187.393509 0,198.853452 C0,225.393461 21.606301,246.989619 48.1588832,246.989619 C58.5894331,246.989619 68.5129642,243.710811 76.8638245,237.515583 C76.8638245,237.515583 85.4938441,229.117077 85.50423,229.127458 L124.412177,190.692765 L169.104417,234.681583 C177.061874,242.511024 188.620391,247 200.810243,247 C227.362793,247 248.968842,225.403842 248.968842,198.863833 C249.010386,186.669359 243.919112,175.809308 236.323901,166.56271 Z M90.1089423,90.0456457 C79.6264631,100.388536 62.5735116,100.398917 52.0806466,90.0767885 L28.4151444,66.7844455 C23.634439,61.7267191 20.9957698,55.1071311 20.9957698,48.1361636 C20.9957698,33.1388315 33.1956925,20.9444513 48.2001119,20.9444513 C54.2641948,20.9444513 60.1932615,22.9820123 64.953447,26.6951535 L109.645688,70.7663276 L90.1089423,90.0456457 Z M71.4930764,213.550995 L63.9494806,221.00798 C59.3343825,224.297169 53.9019486,226.045259 48.2001119,226.045259 C33.1956925,226.045259 20.9957698,213.850784 20.9957698,198.853452 C20.9957698,192.513206 23.2101924,186.369569 27.245854,181.518833 L49.0797627,159.974265 C61.2384566,147.966333 81.0339044,147.955952 93.2133701,159.943437 L109.521372,175.995536 L71.4930764,213.550995 Z M200.851471,226.045259 C194.218684,226.045259 187.85467,223.686895 183.839748,219.746222 L139.343895,175.964394 L177.786051,137.985203 L204.442146,164.266632 C206.077132,165.880084 207.743276,167.462707 209.409105,169.055397 C212.648234,172.137597 215.731575,175.085473 218.432528,178.064177 L218.442914,178.074558 C224.092821,184.311309 228.056128,190.703146 228.056128,198.843071 C228.056128,213.850784 215.855891,226.045259 200.851471,226.045259 Z" transform="translate(25.5 26.5)"/></svg>