<svg xmlns="http://www.w3.org/2000/svg" width="600" height="600" viewBox="0 0 600 600"><defs><linearGradient id="a" x1="104.696%" x2="-24.099%" y1="95.151%" y2="12.112%"><stop offset="0%" stop-color="#FF6A1D"/><stop offset="100%" stop-color="#F800FF"/></linearGradient></defs><path fill="url(#a)" d="M472.647803,333.12542 C471.860995,332.174147 471.074817,331.222874 470.267867,330.291734 C466.729122,326.195976 462.962517,322.307208 458.988824,318.624801 C455.201448,315.128622 451.786703,311.012731 447.729923,307.785198 C444.56381,304.786046 441.417839,301.766133 438.313411,298.724828 L385.373854,246.513665 C385.373854,246.513665 460.665039,172.106765 460.685811,172.127527 C463.45915,169.37626 466.232489,166.645755 469.005199,163.894487 C472.440715,160.502118 476.083319,157.254452 479.10466,153.468864 C482.043544,149.807219 484.506566,145.649175 486.720957,141.512522 C491.27374,132.989445 494.52294,123.805132 496.323785,114.31002 C497.441052,108.373373 498,102.312155 498,96.2723272 C498,43.1921842 454.787272,0 401.682171,0 C379.723946,0 358.262985,7.57098037 341.209404,21.3064289 L340.340139,22.0097542 L340.071365,22.2786524 C335.849041,25.795279 331.937664,29.6635997 328.378147,33.8214547 L249.051583,112.117437 C249.051583,112.117437 169.207615,33.3870276 169.166701,33.3663286 C159.563873,23.89223 150.188274,15.28686 137.874422,9.43275719 C125.788429,3.68208645 112.542996,0.455082126 99.1527912,0.0620529359 C98.2010688,0.0413665268 97.2694887,0.0206423687 96.3177663,0.0206423687 C43.212602,0.0206423687 0,43.2128202 0,96.2930891 C0,121.157046 9.45786699,144.739426 26.6146141,162.715463 L74.669859,210.02367 C93.254882,228.310506 117.654727,237.453295 142.075974,237.453295 C166.517363,237.453295 190.979523,228.268982 209.564546,209.920489 L278.832562,141.553417 L358.200669,63.2162255 L368.217673,53.3075111 C377.820502,45.8398935 389.347547,41.8889026 401.599713,41.8889026 C431.608552,41.8889026 456.008397,66.2776631 456.008397,96.2723272 C456.008397,107.546043 452.614425,118.281836 446.17771,127.466778 L248.741266,322.534331 L215.711087,290.036913 C175.126925,250.092263 109.128252,250.133787 68.6064055,290.160856 L33.5062926,324.809962 L24.2760333,333.932618 L23.0963885,335.194061 C8.19551301,352.570519 0,374.787018 0,397.706905 C0,450.786922 43.212602,493.979238 96.3177663,493.979238 C117.178866,493.979238 137.025928,487.421621 153.727649,475.031167 C153.727649,475.031167 170.987688,458.234155 171.00846,458.254917 L248.824353,381.385529 L338.208835,469.363166 C354.123748,485.022048 377.240782,494 401.620485,494 C454.725586,494 497.937685,450.807684 497.937685,397.727667 C498.020772,373.338717 487.838224,351.618617 472.647803,333.12542 Z M180.217885,180.091291 C159.252926,200.777071 125.147023,200.797833 104.161293,180.153577 L56.8302888,133.568891 C47.268878,123.453438 41.9915396,110.214262 41.9915396,96.2723272 C41.9915396,66.2776631 66.391385,41.8889026 96.4002238,41.8889026 C108.52839,41.8889026 120.386523,45.9640246 129.906894,53.390307 L219.291375,141.532655 L180.217885,180.091291 Z M142.986153,427.10199 L127.898961,442.01596 C118.668765,448.594339 107.803897,452.090518 96.4002238,452.090518 C66.391385,452.090518 41.9915396,427.701569 41.9915396,397.706905 C41.9915396,385.026413 46.4203847,372.739139 54.4917081,363.037666 L98.1595254,319.94853 C122.476913,295.932666 162.067809,295.911904 186.42674,319.886873 L219.042744,351.991073 L142.986153,427.10199 Z M401.702942,452.090518 C388.437368,452.090518 375.70934,447.37379 367.679497,439.492444 L278.68779,351.928787 L355.572103,275.970407 L408.884292,328.533264 C412.154264,331.760167 415.486551,334.925415 418.818209,338.110794 C425.296467,344.275193 431.46315,350.170946 436.865056,356.128355 L436.885827,356.149117 C448.185642,368.622619 456.112256,381.406291 456.112256,397.686143 C456.112256,427.701569 431.711781,452.090518 401.702942,452.090518 Z" transform="translate(51 53)"/></svg>