<svg xmlns="http://www.w3.org/2000/svg" width="150" height="150" viewBox="0 0 150 150"><defs><linearGradient id="a" x1="104.696%" x2="-24.099%" y1="95.151%" y2="12.112%"><stop offset="0%" stop-color="#FF6A1D"/><stop offset="100%" stop-color="#F800FF"/></linearGradient></defs><path fill="url(#a)" d="M118.161951,83.281355 C117.965249,83.0435368 117.768704,82.8057186 117.566967,82.5729336 C116.68228,81.5489941 115.740629,80.5768021 114.747206,79.6562002 C113.800362,78.7821554 112.946676,77.7531827 111.932481,76.9462995 C111.140952,76.1965116 110.35446,75.4415331 109.578353,74.6812069 L96.3434635,61.6284162 C96.3434635,61.6284162 115.16626,43.0266913 115.171453,43.0318818 C115.864787,42.344065 116.558122,41.6614386 117.2513,40.9736218 C118.110179,40.1255294 119.02083,39.313613 119.776165,38.3672161 C120.510886,37.4518047 121.126641,36.4122938 121.680239,35.3781306 C122.818435,33.2473613 123.630735,30.9512831 124.080946,28.5775051 C124.360263,27.0933433 124.5,25.5780387 124.5,24.0680818 C124.5,10.798046 113.696818,0 100.420543,0 C94.9309866,0 89.5657461,1.89274509 85.3023509,5.32660722 L85.0850347,5.50243855 L85.0178413,5.56966309 C83.9622604,6.44881975 82.984416,7.41589994 82.0945367,8.45536368 L62.2628958,28.0293593 C62.2628958,28.0293593 42.3019037,8.34675689 42.2916752,8.34158214 C39.8909681,5.9730575 37.5470685,3.82171499 34.4686054,2.3581893 C31.4471072,0.920521613 28.1357491,0.113770532 24.7881978,0.015513234 C24.5502672,0.0103416317 24.3173722,0.00516059218 24.0794416,0.00516059218 C10.8031505,0.00516059218 0,10.8032051 0,24.0732723 C0,30.2892614 2.36446675,36.1848565 6.65365352,40.6788657 L18.6674647,52.5059174 C23.3137205,57.0776264 29.4136818,59.3633236 35.5189935,59.3633236 C41.6293407,59.3633236 47.7448808,57.0672455 52.3911366,52.4801223 L69.7081406,35.3883543 L89.5501674,15.8040564 L92.0544183,13.3268778 C94.4551254,11.4599734 97.3368866,10.4722257 100.399928,10.4722257 C107.902138,10.4722257 114.002099,16.5694158 114.002099,24.0680818 C114.002099,26.8865107 113.153606,29.570459 111.544427,31.8666945 L62.1853166,80.6335827 L53.9277716,72.5092284 C43.7817313,62.5230657 27.2820629,62.5334466 17.1516014,72.5402139 L8.37657316,81.2024905 L6.06900833,83.4831545 L5.77409713,83.7985153 C2.04887825,88.1426297 0,93.6967544 0,99.4267262 C0,112.69673 10.8031505,123.49481 24.0794416,123.49481 C29.2947165,123.49481 34.2564821,121.855405 38.4319123,118.757792 C38.4319123,118.757792 42.7469221,114.558539 42.752115,114.563729 L62.2060883,95.3463823 L84.5522086,117.340792 C88.5309369,121.255512 94.3101955,123.5 100.405121,123.5 C113.681397,123.5 124.484421,112.701921 124.484421,99.4319166 C124.505193,93.3346793 121.959556,87.9046542 118.161951,83.281355 Z M45.0544712,45.0228228 C39.8132315,50.1942678 31.2867558,50.1994583 26.0403233,45.0383943 L14.2075722,33.3922228 C11.8172195,30.8633596 10.4978849,27.5535656 10.4978849,24.0680818 C10.4978849,16.5694158 16.5978462,10.4722257 24.1000559,10.4722257 C27.1320974,10.4722257 30.0966308,11.4910061 32.4767235,13.3475768 L54.8228439,35.3831638 L45.0544712,45.0228228 Z M35.7465382,106.775498 L31.9747403,110.50399 C29.6671912,112.148585 26.9509743,113.022629 24.1000559,113.022629 C16.5978462,113.022629 10.4978849,106.925392 10.4978849,99.4267262 C10.4978849,96.2566032 11.6050962,93.1847847 13.622927,90.7594164 L24.5398813,79.9871325 C30.6192283,73.9831665 40.5169522,73.977976 46.606685,79.9717183 L54.7606861,87.9977682 L35.7465382,106.775498 Z M100.425736,113.022629 C97.1093419,113.022629 93.9273349,111.843448 91.9198742,109.873111 L69.6719475,87.9821968 L88.8930257,68.9926017 L102.221073,82.133316 C103.038566,82.9400419 103.871638,83.7313536 104.704552,84.5276986 C106.324117,86.0687983 107.865788,87.5427364 109.216264,89.0320887 L109.221457,89.0372792 C112.046411,92.1556547 114.028064,95.3515728 114.028064,99.4215357 C114.028064,106.925392 107.927945,113.022629 100.425736,113.022629 Z" transform="translate(12.75 13.25)"/></svg>